<mxfile host="app.diagrams.net" agent="Mozilla/5.0 (X11; Linux x86_64) AppleWebKit/537.36 (KHTML, like Gecko) Chrome/109.0.0.0 Safari/537.36" version="26.0.3">
  <diagram name="Page-1" id="90a13364-a465-7bf4-72fc-28e22215d7a0">
    <mxGraphModel dx="2391" dy="6059" grid="1" gridSize="10" guides="1" tooltips="1" connect="1" arrows="1" fold="1" page="1" pageScale="1.5" pageWidth="4681" pageHeight="3300" background="none" math="0" shadow="0">
      <root>
        <mxCell id="0" style=";html=1;" />
        <mxCell id="1" style=";html=1;" parent="0" />
        <mxCell id="F4LApp7SRapzV72RJLrX-4" style="edgeStyle=orthogonalEdgeStyle;rounded=0;orthogonalLoop=1;jettySize=auto;html=1;entryX=0.5;entryY=0;entryDx=0;entryDy=0;exitX=1;exitY=0.5;exitDx=0;exitDy=0;" parent="1" source="F4LApp7SRapzV72RJLrX-1" target="-hvyRLRQOOJ3VwnVLbOB-57" edge="1">
          <mxGeometry relative="1" as="geometry" />
        </mxCell>
        <mxCell id="F4LApp7SRapzV72RJLrX-8" value="" style="group" parent="1" vertex="1" connectable="0">
          <mxGeometry x="1211" y="510" width="180" height="280" as="geometry" />
        </mxCell>
        <mxCell id="3a17f1ce550125da-2" value="Register&lt;div&gt;File&lt;/div&gt;" style="whiteSpace=wrap;html=1;shadow=1;fontSize=18;fillColor=#f5f5f5;strokeColor=#666666;" parent="F4LApp7SRapzV72RJLrX-8" vertex="1">
          <mxGeometry width="170" height="280" as="geometry" />
        </mxCell>
        <mxCell id="JqTOLJbfiFGYhZ1s0W8t-2" value="" style="triangle;whiteSpace=wrap;html=1;rotation=90;" parent="F4LApp7SRapzV72RJLrX-8" vertex="1">
          <mxGeometry x="20" y="-5" width="20" height="30" as="geometry" />
        </mxCell>
        <mxCell id="JqTOLJbfiFGYhZ1s0W8t-5" value="Read&amp;nbsp;&lt;div&gt;Address 1&lt;/div&gt;" style="text;html=1;align=left;verticalAlign=middle;whiteSpace=wrap;rounded=0;" parent="F4LApp7SRapzV72RJLrX-8" vertex="1">
          <mxGeometry y="40" width="60" height="30" as="geometry" />
        </mxCell>
        <mxCell id="JqTOLJbfiFGYhZ1s0W8t-8" value="Read&amp;nbsp;&lt;div&gt;Address 2&lt;/div&gt;" style="text;html=1;align=left;verticalAlign=middle;whiteSpace=wrap;rounded=0;" parent="F4LApp7SRapzV72RJLrX-8" vertex="1">
          <mxGeometry y="90" width="60" height="30" as="geometry" />
        </mxCell>
        <mxCell id="JqTOLJbfiFGYhZ1s0W8t-10" value="Write&lt;div&gt;Address&lt;/div&gt;" style="text;html=1;align=left;verticalAlign=middle;whiteSpace=wrap;rounded=0;" parent="F4LApp7SRapzV72RJLrX-8" vertex="1">
          <mxGeometry y="150" width="60" height="40" as="geometry" />
        </mxCell>
        <mxCell id="JqTOLJbfiFGYhZ1s0W8t-13" value="Write&lt;div&gt;Data&lt;/div&gt;" style="text;html=1;align=center;verticalAlign=middle;whiteSpace=wrap;rounded=0;" parent="F4LApp7SRapzV72RJLrX-8" vertex="1">
          <mxGeometry y="240" width="60" height="40" as="geometry" />
        </mxCell>
        <mxCell id="JqTOLJbfiFGYhZ1s0W8t-16" value="Read&lt;br&gt;Data 1" style="text;html=1;align=center;verticalAlign=middle;whiteSpace=wrap;rounded=0;" parent="F4LApp7SRapzV72RJLrX-8" vertex="1">
          <mxGeometry x="120" y="40" width="60" height="30" as="geometry" />
        </mxCell>
        <mxCell id="JqTOLJbfiFGYhZ1s0W8t-17" value="Read&lt;br&gt;Data 2" style="text;html=1;align=center;verticalAlign=middle;whiteSpace=wrap;rounded=0;" parent="F4LApp7SRapzV72RJLrX-8" vertex="1">
          <mxGeometry x="120" y="80" width="60" height="30" as="geometry" />
        </mxCell>
        <mxCell id="JqTOLJbfiFGYhZ1s0W8t-6" style="edgeStyle=orthogonalEdgeStyle;rounded=0;orthogonalLoop=1;jettySize=auto;html=1;exitX=0.5;exitY=1;exitDx=0;exitDy=0;" parent="F4LApp7SRapzV72RJLrX-8" source="JqTOLJbfiFGYhZ1s0W8t-5" target="JqTOLJbfiFGYhZ1s0W8t-5" edge="1">
          <mxGeometry relative="1" as="geometry" />
        </mxCell>
        <mxCell id="F4LApp7SRapzV72RJLrX-10" value="" style="group" parent="1" vertex="1" connectable="0">
          <mxGeometry x="1211" y="426" width="60" height="84" as="geometry" />
        </mxCell>
        <mxCell id="JqTOLJbfiFGYhZ1s0W8t-1" value="" style="edgeStyle=elbowEdgeStyle;rounded=0;html=1;startArrow=none;startFill=0;jettySize=auto;orthogonalLoop=1;fontSize=18;elbow=vertical;entryX=0;entryY=0.5;entryDx=0;entryDy=0;" parent="F4LApp7SRapzV72RJLrX-10" target="JqTOLJbfiFGYhZ1s0W8t-2" edge="1">
          <mxGeometry relative="1" as="geometry">
            <Array as="points">
              <mxPoint x="29" y="30" />
            </Array>
            <mxPoint x="30" y="4" as="sourcePoint" />
            <mxPoint x="19" y="54" as="targetPoint" />
          </mxGeometry>
        </mxCell>
        <mxCell id="F4LApp7SRapzV72RJLrX-15" value="" style="group" parent="1" vertex="1" connectable="0">
          <mxGeometry x="1900" y="710" width="316.25" height="120" as="geometry" />
        </mxCell>
        <mxCell id="-hvyRLRQOOJ3VwnVLbOB-45" value="" style="group" parent="F4LApp7SRapzV72RJLrX-15" vertex="1" connectable="0">
          <mxGeometry x="190" width="126.25" height="120" as="geometry" />
        </mxCell>
        <mxCell id="F4LApp7SRapzV72RJLrX-11" value="" style="group" parent="-hvyRLRQOOJ3VwnVLbOB-45" vertex="1" connectable="0">
          <mxGeometry x="-3.552713678800501e-15" width="126.25" height="120" as="geometry" />
        </mxCell>
        <mxCell id="-hvyRLRQOOJ3VwnVLbOB-44" value="&lt;div&gt;&lt;br&gt;&lt;/div&gt;" style="text;html=1;align=center;verticalAlign=middle;whiteSpace=wrap;rounded=0;fontFamily=Helvetica;fontSize=18;fontColor=default;" parent="F4LApp7SRapzV72RJLrX-11" vertex="1">
          <mxGeometry x="3.552713678800501e-15" y="50" width="60" height="30" as="geometry" />
        </mxCell>
        <mxCell id="F4LApp7SRapzV72RJLrX-90" value="" style="group" parent="F4LApp7SRapzV72RJLrX-11" vertex="1" connectable="0">
          <mxGeometry width="126.25" height="120" as="geometry" />
        </mxCell>
        <mxCell id="-hvyRLRQOOJ3VwnVLbOB-43" value="" style="shape=trapezoid;perimeter=trapezoidPerimeter;whiteSpace=wrap;html=1;fixedSize=1;shadow=1;strokeColor=#666666;align=center;verticalAlign=middle;fontFamily=Helvetica;fontSize=18;fontColor=default;fillColor=#f5f5f5;rotation=90;" parent="F4LApp7SRapzV72RJLrX-90" vertex="1">
          <mxGeometry x="-16.25" y="1.25" width="142.5" height="110" as="geometry" />
        </mxCell>
        <mxCell id="F4LApp7SRapzV72RJLrX-87" value="&lt;span style=&quot;font-size: 18px;&quot;&gt;00&lt;/span&gt;" style="text;html=1;align=center;verticalAlign=middle;whiteSpace=wrap;rounded=0;" parent="F4LApp7SRapzV72RJLrX-90" vertex="1">
          <mxGeometry y="30" width="60" height="22.5" as="geometry" />
        </mxCell>
        <mxCell id="F4LApp7SRapzV72RJLrX-88" value="&lt;span style=&quot;font-size: 18px;&quot;&gt;01&lt;/span&gt;" style="text;html=1;align=center;verticalAlign=middle;whiteSpace=wrap;rounded=0;" parent="F4LApp7SRapzV72RJLrX-90" vertex="1">
          <mxGeometry y="48.75" width="60" height="22.5" as="geometry" />
        </mxCell>
        <mxCell id="F4LApp7SRapzV72RJLrX-89" value="&lt;span style=&quot;font-size: 18px;&quot;&gt;10&lt;/span&gt;" style="text;html=1;align=center;verticalAlign=middle;whiteSpace=wrap;rounded=0;" parent="F4LApp7SRapzV72RJLrX-90" vertex="1">
          <mxGeometry y="67.5" width="60" height="22.5" as="geometry" />
        </mxCell>
        <mxCell id="F4LApp7SRapzV72RJLrX-91" value="&lt;font style=&quot;font-size: 10px;&quot;&gt;ALUresult&lt;/font&gt;" style="text;html=1;align=center;verticalAlign=middle;whiteSpace=wrap;rounded=0;" parent="F4LApp7SRapzV72RJLrX-90" vertex="1">
          <mxGeometry x="40" y="30" width="60" height="22.5" as="geometry" />
        </mxCell>
        <mxCell id="F4LApp7SRapzV72RJLrX-92" value="&lt;font style=&quot;font-size: 10px;&quot;&gt;Data Memory&lt;/font&gt;" style="text;html=1;align=center;verticalAlign=middle;whiteSpace=wrap;rounded=0;" parent="F4LApp7SRapzV72RJLrX-90" vertex="1">
          <mxGeometry x="35" y="48.75" width="70" height="22.5" as="geometry" />
        </mxCell>
        <mxCell id="F4LApp7SRapzV72RJLrX-93" value="&lt;span style=&quot;font-size: 10px;&quot;&gt;PC+4&lt;/span&gt;" style="text;html=1;align=center;verticalAlign=middle;whiteSpace=wrap;rounded=0;" parent="F4LApp7SRapzV72RJLrX-90" vertex="1">
          <mxGeometry x="35" y="67.5" width="70" height="22.5" as="geometry" />
        </mxCell>
        <mxCell id="laC3dYbV331lfGwgBf-x-39" value="Mem2Reg" style="text;html=1;align=center;verticalAlign=middle;whiteSpace=wrap;rounded=0;" parent="F4LApp7SRapzV72RJLrX-90" vertex="1">
          <mxGeometry x="25" y="-10" width="60" height="30" as="geometry" />
        </mxCell>
        <mxCell id="F4LApp7SRapzV72RJLrX-17" value="" style="group" parent="1" vertex="1" connectable="0">
          <mxGeometry x="880" y="310" width="280" height="370" as="geometry" />
        </mxCell>
        <mxCell id="-hvyRLRQOOJ3VwnVLbOB-1" value="Instruction&lt;div&gt;Decoder&lt;/div&gt;" style="whiteSpace=wrap;html=1;shadow=1;fontSize=18;fillColor=#f5f5f5;strokeColor=#666666;" parent="F4LApp7SRapzV72RJLrX-17" vertex="1">
          <mxGeometry x="10" width="150" height="260" as="geometry" />
        </mxCell>
        <mxCell id="-hvyRLRQOOJ3VwnVLbOB-2" value="Instr." style="text;html=1;align=center;verticalAlign=middle;whiteSpace=wrap;rounded=0;" parent="F4LApp7SRapzV72RJLrX-17" vertex="1">
          <mxGeometry y="120" width="60" height="30" as="geometry" />
        </mxCell>
        <mxCell id="-hvyRLRQOOJ3VwnVLbOB-6" value="opcode" style="text;html=1;align=right;verticalAlign=middle;whiteSpace=wrap;rounded=0;" parent="F4LApp7SRapzV72RJLrX-17" vertex="1">
          <mxGeometry x="100" y="20" width="60" height="30" as="geometry" />
        </mxCell>
        <mxCell id="-hvyRLRQOOJ3VwnVLbOB-7" value="&lt;div style=&quot;&quot;&gt;&lt;span style=&quot;background-color: transparent;&quot;&gt;rs1&lt;/span&gt;&lt;/div&gt;" style="text;html=1;align=right;verticalAlign=middle;whiteSpace=wrap;rounded=0;" parent="F4LApp7SRapzV72RJLrX-17" vertex="1">
          <mxGeometry x="100" y="120" width="60" height="30" as="geometry" />
        </mxCell>
        <mxCell id="-hvyRLRQOOJ3VwnVLbOB-8" value="rs2" style="text;html=1;align=right;verticalAlign=middle;whiteSpace=wrap;rounded=0;" parent="F4LApp7SRapzV72RJLrX-17" vertex="1">
          <mxGeometry x="100" y="150" width="60" height="30" as="geometry" />
        </mxCell>
        <mxCell id="-hvyRLRQOOJ3VwnVLbOB-9" value="rd" style="text;html=1;align=right;verticalAlign=middle;whiteSpace=wrap;rounded=0;" parent="F4LApp7SRapzV72RJLrX-17" vertex="1">
          <mxGeometry x="100" y="180" width="60" height="30" as="geometry" />
        </mxCell>
        <mxCell id="-hvyRLRQOOJ3VwnVLbOB-10" value="imm" style="text;html=1;align=right;verticalAlign=middle;whiteSpace=wrap;rounded=0;" parent="F4LApp7SRapzV72RJLrX-17" vertex="1">
          <mxGeometry x="100" y="220" width="60" height="30" as="geometry" />
        </mxCell>
        <mxCell id="-hvyRLRQOOJ3VwnVLbOB-11" value="funct3" style="text;html=1;align=right;verticalAlign=middle;whiteSpace=wrap;rounded=0;" parent="F4LApp7SRapzV72RJLrX-17" vertex="1">
          <mxGeometry x="100" y="50" width="60" height="30" as="geometry" />
        </mxCell>
        <mxCell id="-hvyRLRQOOJ3VwnVLbOB-12" value="funct7" style="text;html=1;align=right;verticalAlign=middle;whiteSpace=wrap;rounded=0;" parent="F4LApp7SRapzV72RJLrX-17" vertex="1">
          <mxGeometry x="100" y="70" width="60" height="30" as="geometry" />
        </mxCell>
        <mxCell id="-hvyRLRQOOJ3VwnVLbOB-21" value="(Destination&lt;div&gt;Register)&lt;/div&gt;" style="text;html=1;align=center;verticalAlign=middle;whiteSpace=wrap;rounded=0;" parent="F4LApp7SRapzV72RJLrX-17" vertex="1">
          <mxGeometry x="70" y="180" width="60" height="30" as="geometry" />
        </mxCell>
        <mxCell id="3a17f1ce550125da-20" style="edgeStyle=elbowEdgeStyle;rounded=0;html=1;startArrow=none;startFill=0;jettySize=auto;orthogonalLoop=1;fontSize=18;elbow=vertical;entryX=-0.001;entryY=0.538;entryDx=0;entryDy=0;entryPerimeter=0;" parent="1" source="0RyyWnerKbfPe0gcl8zv-1" target="-hvyRLRQOOJ3VwnVLbOB-1" edge="1">
          <mxGeometry relative="1" as="geometry">
            <Array as="points">
              <mxPoint x="860" y="450" />
              <mxPoint x="970" y="480" />
            </Array>
            <mxPoint x="864" y="446" as="targetPoint" />
          </mxGeometry>
        </mxCell>
        <mxCell id="F4LApp7SRapzV72RJLrX-21" value="" style="group" parent="1" vertex="1" connectable="0">
          <mxGeometry x="489" y="286" width="189" height="274" as="geometry" />
        </mxCell>
        <mxCell id="3a17f1ce550125da-8" value="Program&lt;div&gt;Counter&lt;/div&gt;" style="whiteSpace=wrap;html=1;shadow=1;fontSize=18;fillColor=#f5f5f5;strokeColor=#666666;" parent="F4LApp7SRapzV72RJLrX-21" vertex="1">
          <mxGeometry x="81" y="124" width="80" height="150" as="geometry" />
        </mxCell>
        <mxCell id="0RyyWnerKbfPe0gcl8zv-7" value="NextPC" style="text;html=1;align=left;verticalAlign=middle;whiteSpace=wrap;rounded=0;" parent="F4LApp7SRapzV72RJLrX-21" vertex="1">
          <mxGeometry x="81" y="139" width="60" height="30" as="geometry" />
        </mxCell>
        <mxCell id="0RyyWnerKbfPe0gcl8zv-8" value="pc" style="text;html=1;align=right;verticalAlign=middle;whiteSpace=wrap;rounded=0;" parent="F4LApp7SRapzV72RJLrX-21" vertex="1">
          <mxGeometry x="101" y="139" width="60" height="30" as="geometry" />
        </mxCell>
        <mxCell id="0RyyWnerKbfPe0gcl8zv-11" value="" style="triangle;whiteSpace=wrap;html=1;rotation=90;" parent="F4LApp7SRapzV72RJLrX-21" vertex="1">
          <mxGeometry x="99" y="119" width="20" height="30" as="geometry" />
        </mxCell>
        <mxCell id="F4LApp7SRapzV72RJLrX-19" value="" style="group" parent="F4LApp7SRapzV72RJLrX-21" vertex="1" connectable="0">
          <mxGeometry x="91" width="60" height="124" as="geometry" />
        </mxCell>
        <mxCell id="0RyyWnerKbfPe0gcl8zv-10" value="" style="edgeStyle=elbowEdgeStyle;rounded=0;html=1;startArrow=none;startFill=0;jettySize=auto;orthogonalLoop=1;fontSize=18;elbow=vertical;entryX=0.25;entryY=0;entryDx=0;entryDy=0;" parent="F4LApp7SRapzV72RJLrX-19" edge="1">
          <mxGeometry relative="1" as="geometry">
            <Array as="points">
              <mxPoint x="30" y="104" />
            </Array>
            <mxPoint x="17" as="sourcePoint" />
            <mxPoint x="17" y="124" as="targetPoint" />
          </mxGeometry>
        </mxCell>
        <mxCell id="0RyyWnerKbfPe0gcl8zv-12" value="clk" style="text;html=1;align=center;verticalAlign=middle;whiteSpace=wrap;rounded=0;" parent="F4LApp7SRapzV72RJLrX-19" vertex="1">
          <mxGeometry y="94" width="60" height="30" as="geometry" />
        </mxCell>
        <mxCell id="F4LApp7SRapzV72RJLrX-20" value="" style="group" parent="F4LApp7SRapzV72RJLrX-21" vertex="1" connectable="0">
          <mxGeometry x="129" width="60" height="124" as="geometry" />
        </mxCell>
        <mxCell id="0RyyWnerKbfPe0gcl8zv-13" value="" style="edgeStyle=elbowEdgeStyle;rounded=0;html=1;startArrow=none;startFill=0;jettySize=auto;orthogonalLoop=1;fontSize=18;elbow=vertical;entryX=0.75;entryY=0;entryDx=0;entryDy=0;" parent="F4LApp7SRapzV72RJLrX-20" target="3a17f1ce550125da-8" edge="1">
          <mxGeometry relative="1" as="geometry">
            <Array as="points" />
            <mxPoint x="12" as="sourcePoint" />
            <mxPoint x="67" y="70" as="targetPoint" />
          </mxGeometry>
        </mxCell>
        <mxCell id="0RyyWnerKbfPe0gcl8zv-14" value="reset" style="text;html=1;align=center;verticalAlign=middle;whiteSpace=wrap;rounded=0;" parent="F4LApp7SRapzV72RJLrX-20" vertex="1">
          <mxGeometry y="94" width="60" height="30" as="geometry" />
        </mxCell>
        <mxCell id="F4LApp7SRapzV72RJLrX-22" value="" style="group" parent="1" vertex="1" connectable="0">
          <mxGeometry x="690" y="410" width="140" height="150" as="geometry" />
        </mxCell>
        <mxCell id="0RyyWnerKbfPe0gcl8zv-1" value="Instruction&lt;div&gt;Memory&lt;/div&gt;" style="whiteSpace=wrap;html=1;shadow=1;fontSize=18;fillColor=#f5f5f5;strokeColor=#666666;" parent="F4LApp7SRapzV72RJLrX-22" vertex="1">
          <mxGeometry x="10" width="120" height="150" as="geometry" />
        </mxCell>
        <mxCell id="0RyyWnerKbfPe0gcl8zv-3" value="address" style="text;html=1;align=left;verticalAlign=middle;whiteSpace=wrap;rounded=0;" parent="F4LApp7SRapzV72RJLrX-22" vertex="1">
          <mxGeometry x="10" y="20" width="60" height="30" as="geometry" />
        </mxCell>
        <mxCell id="0RyyWnerKbfPe0gcl8zv-4" value="RD" style="text;html=1;align=center;verticalAlign=middle;whiteSpace=wrap;rounded=0;" parent="F4LApp7SRapzV72RJLrX-22" vertex="1">
          <mxGeometry x="80" y="20" width="60" height="30" as="geometry" />
        </mxCell>
        <mxCell id="F4LApp7SRapzV72RJLrX-28" value="" style="group" parent="1" vertex="1" connectable="0">
          <mxGeometry x="1180" width="180" height="510" as="geometry" />
        </mxCell>
        <mxCell id="-hvyRLRQOOJ3VwnVLbOB-47" value="Control&lt;div&gt;Unit&lt;/div&gt;" style="whiteSpace=wrap;html=1;shadow=1;fontSize=18;fillColor=#f5f5f5;strokeColor=#666666;" parent="F4LApp7SRapzV72RJLrX-28" vertex="1">
          <mxGeometry width="150" height="260" as="geometry" />
        </mxCell>
        <mxCell id="-hvyRLRQOOJ3VwnVLbOB-48" value="RegWrite" style="text;html=1;align=center;verticalAlign=middle;whiteSpace=wrap;rounded=0;" parent="F4LApp7SRapzV72RJLrX-28" vertex="1">
          <mxGeometry x="80" y="230" width="60" height="30" as="geometry" />
        </mxCell>
        <mxCell id="-hvyRLRQOOJ3VwnVLbOB-49" value="opcode" style="text;html=1;align=left;verticalAlign=middle;whiteSpace=wrap;rounded=0;" parent="F4LApp7SRapzV72RJLrX-28" vertex="1">
          <mxGeometry y="20" width="60" height="30" as="geometry" />
        </mxCell>
        <mxCell id="-hvyRLRQOOJ3VwnVLbOB-59" value="ALUop" style="text;html=1;align=center;verticalAlign=middle;whiteSpace=wrap;rounded=0;" parent="F4LApp7SRapzV72RJLrX-28" vertex="1">
          <mxGeometry x="90" y="60" width="60" height="30" as="geometry" />
        </mxCell>
        <mxCell id="F4LApp7SRapzV72RJLrX-9" value="" style="group" parent="F4LApp7SRapzV72RJLrX-28" vertex="1" connectable="0">
          <mxGeometry x="100" y="466.5" width="60" height="43.5" as="geometry" />
        </mxCell>
        <mxCell id="JqTOLJbfiFGYhZ1s0W8t-14" value="" style="edgeStyle=elbowEdgeStyle;rounded=0;html=1;startArrow=none;startFill=0;jettySize=auto;orthogonalLoop=1;fontSize=18;elbow=vertical;exitX=0.696;exitY=1.003;exitDx=0;exitDy=0;exitPerimeter=0;" parent="F4LApp7SRapzV72RJLrX-9" source="-hvyRLRQOOJ3VwnVLbOB-47" edge="1">
          <mxGeometry relative="1" as="geometry">
            <Array as="points">
              <mxPoint x="10" y="3.5" />
            </Array>
            <mxPoint x="1" y="-96.5" as="sourcePoint" />
            <mxPoint x="5" y="43.5" as="targetPoint" />
          </mxGeometry>
        </mxCell>
        <mxCell id="JqTOLJbfiFGYhZ1s0W8t-3" value="clk" style="text;html=1;align=center;verticalAlign=middle;whiteSpace=wrap;rounded=0;" parent="F4LApp7SRapzV72RJLrX-28" vertex="1">
          <mxGeometry x="40" y="480" width="60" height="30" as="geometry" />
        </mxCell>
        <mxCell id="F4LApp7SRapzV72RJLrX-56" value="MemRead" style="text;html=1;align=center;verticalAlign=middle;whiteSpace=wrap;rounded=0;" parent="F4LApp7SRapzV72RJLrX-28" vertex="1">
          <mxGeometry x="90" y="180" width="60" height="30" as="geometry" />
        </mxCell>
        <mxCell id="F4LApp7SRapzV72RJLrX-73" value="MemWrite" style="text;html=1;align=center;verticalAlign=middle;whiteSpace=wrap;rounded=0;" parent="F4LApp7SRapzV72RJLrX-28" vertex="1">
          <mxGeometry x="90" y="160" width="60" height="30" as="geometry" />
        </mxCell>
        <mxCell id="laC3dYbV331lfGwgBf-x-33" value="ALUsrcB" style="text;html=1;align=center;verticalAlign=middle;whiteSpace=wrap;rounded=0;" parent="F4LApp7SRapzV72RJLrX-28" vertex="1">
          <mxGeometry x="90" y="40" width="60" height="30" as="geometry" />
        </mxCell>
        <mxCell id="laC3dYbV331lfGwgBf-x-37" value="Mem2Reg" style="text;html=1;align=center;verticalAlign=middle;whiteSpace=wrap;rounded=0;" parent="F4LApp7SRapzV72RJLrX-28" vertex="1">
          <mxGeometry x="90" y="200" width="60" height="30" as="geometry" />
        </mxCell>
        <mxCell id="laC3dYbV331lfGwgBf-x-40" value="Branch" style="text;html=1;align=center;verticalAlign=middle;whiteSpace=wrap;rounded=0;" parent="F4LApp7SRapzV72RJLrX-28" vertex="1">
          <mxGeometry x="90" y="90" width="60" height="30" as="geometry" />
        </mxCell>
        <mxCell id="s6hKSkpy---ewfnxM8lV-1" value="Jump" style="text;html=1;align=center;verticalAlign=middle;whiteSpace=wrap;rounded=0;" parent="F4LApp7SRapzV72RJLrX-28" vertex="1">
          <mxGeometry x="90" y="110" width="60" height="30" as="geometry" />
        </mxCell>
        <mxCell id="q9rqpO51LhmBKndgSOn--2" value="ALUsrcA" style="text;html=1;align=center;verticalAlign=middle;whiteSpace=wrap;rounded=0;" vertex="1" parent="F4LApp7SRapzV72RJLrX-28">
          <mxGeometry x="90" y="20" width="60" height="30" as="geometry" />
        </mxCell>
        <mxCell id="F4LApp7SRapzV72RJLrX-57" value="" style="group" parent="1" vertex="1" connectable="0">
          <mxGeometry x="1470" y="560" width="124" height="200" as="geometry" />
        </mxCell>
        <mxCell id="3a17f1ce550125da-4" value="Data&lt;div&gt;Memory&lt;/div&gt;" style="whiteSpace=wrap;html=1;shadow=1;fontSize=18;fillColor=#f5f5f5;strokeColor=#666666;" parent="F4LApp7SRapzV72RJLrX-57" vertex="1">
          <mxGeometry x="4" width="120" height="200" as="geometry" />
        </mxCell>
        <mxCell id="F4LApp7SRapzV72RJLrX-40" value="Address" style="text;html=1;align=center;verticalAlign=middle;whiteSpace=wrap;rounded=0;" parent="F4LApp7SRapzV72RJLrX-57" vertex="1">
          <mxGeometry y="154" width="60" height="30" as="geometry" />
        </mxCell>
        <mxCell id="F4LApp7SRapzV72RJLrX-41" value="WriteData" style="text;html=1;align=center;verticalAlign=middle;whiteSpace=wrap;rounded=0;" parent="F4LApp7SRapzV72RJLrX-57" vertex="1">
          <mxGeometry x="4" y="130" width="60" height="30" as="geometry" />
        </mxCell>
        <mxCell id="F4LApp7SRapzV72RJLrX-42" value="MemWrite" style="text;html=1;align=center;verticalAlign=middle;whiteSpace=wrap;rounded=0;" parent="F4LApp7SRapzV72RJLrX-57" vertex="1">
          <mxGeometry x="4" width="60" height="30" as="geometry" />
        </mxCell>
        <mxCell id="F4LApp7SRapzV72RJLrX-43" value="MemRead" style="text;html=1;align=center;verticalAlign=middle;whiteSpace=wrap;rounded=0;" parent="F4LApp7SRapzV72RJLrX-57" vertex="1">
          <mxGeometry x="4" y="33" width="60" height="30" as="geometry" />
        </mxCell>
        <mxCell id="F4LApp7SRapzV72RJLrX-44" value="ReadData" style="text;html=1;align=center;verticalAlign=middle;whiteSpace=wrap;rounded=0;" parent="F4LApp7SRapzV72RJLrX-57" vertex="1">
          <mxGeometry x="64" y="50" width="60" height="30" as="geometry" />
        </mxCell>
        <mxCell id="F4LApp7SRapzV72RJLrX-58" value="" style="group" parent="1" vertex="1" connectable="0">
          <mxGeometry x="1880" y="450" width="120" height="160" as="geometry" />
        </mxCell>
        <mxCell id="-hvyRLRQOOJ3VwnVLbOB-57" value="ALU" style="whiteSpace=wrap;html=1;shadow=1;fontSize=18;fillColor=#f5f5f5;strokeColor=#666666;resizeWidth=0;comic=0;rotatable=1;treeFolding=0;collapsible=0;dropTarget=0;container=0;noLabel=0;portConstraintRotation=0;gradientColor=none;" parent="F4LApp7SRapzV72RJLrX-58" vertex="1">
          <mxGeometry width="120" height="160" as="geometry" />
        </mxCell>
        <mxCell id="F4LApp7SRapzV72RJLrX-6" value="ALUcontrol" style="text;html=1;align=center;verticalAlign=middle;whiteSpace=wrap;rounded=0;" parent="F4LApp7SRapzV72RJLrX-58" vertex="1">
          <mxGeometry x="30" width="60" height="30" as="geometry" />
        </mxCell>
        <mxCell id="F4LApp7SRapzV72RJLrX-85" value="ALUresult" style="text;html=1;align=right;verticalAlign=middle;whiteSpace=wrap;rounded=0;" parent="F4LApp7SRapzV72RJLrX-58" vertex="1">
          <mxGeometry x="60" y="130" width="60" height="30" as="geometry" />
        </mxCell>
        <mxCell id="laC3dYbV331lfGwgBf-x-6" value="srcA" style="text;html=1;align=center;verticalAlign=middle;whiteSpace=wrap;rounded=0;" parent="F4LApp7SRapzV72RJLrX-58" vertex="1">
          <mxGeometry x="-10" y="25" width="60" height="30" as="geometry" />
        </mxCell>
        <mxCell id="laC3dYbV331lfGwgBf-x-7" value="srcB" style="text;html=1;align=center;verticalAlign=middle;whiteSpace=wrap;rounded=0;" parent="F4LApp7SRapzV72RJLrX-58" vertex="1">
          <mxGeometry x="-10" y="50" width="60" height="30" as="geometry" />
        </mxCell>
        <mxCell id="laC3dYbV331lfGwgBf-x-29" value="NZCV" style="text;html=1;align=right;verticalAlign=middle;whiteSpace=wrap;rounded=0;" parent="F4LApp7SRapzV72RJLrX-58" vertex="1">
          <mxGeometry x="60" y="100" width="60" height="30" as="geometry" />
        </mxCell>
        <mxCell id="F4LApp7SRapzV72RJLrX-61" value="" style="group" parent="1" vertex="1" connectable="0">
          <mxGeometry x="1510" y="286" width="150" height="190" as="geometry" />
        </mxCell>
        <mxCell id="-hvyRLRQOOJ3VwnVLbOB-56" value="ALU&lt;div&gt;Control&lt;/div&gt;&lt;div&gt;Unit&lt;/div&gt;" style="whiteSpace=wrap;html=1;shadow=1;fontSize=18;fillColor=#f5f5f5;strokeColor=#666666;" parent="F4LApp7SRapzV72RJLrX-61" vertex="1">
          <mxGeometry x="10" width="140" height="190" as="geometry" />
        </mxCell>
        <mxCell id="-hvyRLRQOOJ3VwnVLbOB-61" value="ALUop" style="text;html=1;align=left;verticalAlign=middle;whiteSpace=wrap;rounded=0;" parent="F4LApp7SRapzV72RJLrX-61" vertex="1">
          <mxGeometry x="10" y="10" width="60" height="30" as="geometry" />
        </mxCell>
        <mxCell id="-hvyRLRQOOJ3VwnVLbOB-64" value="funct3" style="text;html=1;align=left;verticalAlign=middle;whiteSpace=wrap;rounded=0;" parent="F4LApp7SRapzV72RJLrX-61" vertex="1">
          <mxGeometry x="10" y="40" width="60" height="30" as="geometry" />
        </mxCell>
        <mxCell id="-hvyRLRQOOJ3VwnVLbOB-65" value="funct7" style="text;html=1;align=left;verticalAlign=middle;whiteSpace=wrap;rounded=0;" parent="F4LApp7SRapzV72RJLrX-61" vertex="1">
          <mxGeometry x="10" y="60" width="60" height="30" as="geometry" />
        </mxCell>
        <mxCell id="F4LApp7SRapzV72RJLrX-1" value="ALUcontrol" style="text;html=1;align=center;verticalAlign=middle;whiteSpace=wrap;rounded=0;" parent="F4LApp7SRapzV72RJLrX-61" vertex="1">
          <mxGeometry x="90" y="120" width="60" height="30" as="geometry" />
        </mxCell>
        <mxCell id="F4LApp7SRapzV72RJLrX-75" style="edgeStyle=orthogonalEdgeStyle;rounded=0;orthogonalLoop=1;jettySize=auto;html=1;entryX=0;entryY=0.5;entryDx=0;entryDy=0;" parent="1" source="F4LApp7SRapzV72RJLrX-56" target="F4LApp7SRapzV72RJLrX-43" edge="1">
          <mxGeometry relative="1" as="geometry" />
        </mxCell>
        <mxCell id="F4LApp7SRapzV72RJLrX-78" style="edgeStyle=orthogonalEdgeStyle;rounded=0;orthogonalLoop=1;jettySize=auto;html=1;entryX=0;entryY=0.5;entryDx=0;entryDy=0;" parent="1" source="F4LApp7SRapzV72RJLrX-44" target="F4LApp7SRapzV72RJLrX-88" edge="1">
          <mxGeometry relative="1" as="geometry">
            <mxPoint x="2030" y="720" as="targetPoint" />
          </mxGeometry>
        </mxCell>
        <mxCell id="F4LApp7SRapzV72RJLrX-95" style="edgeStyle=orthogonalEdgeStyle;rounded=0;orthogonalLoop=1;jettySize=auto;html=1;entryX=0;entryY=0.5;entryDx=0;entryDy=0;exitX=0.529;exitY=-0.006;exitDx=0;exitDy=0;exitPerimeter=0;" parent="1" source="-hvyRLRQOOJ3VwnVLbOB-43" target="JqTOLJbfiFGYhZ1s0W8t-13" edge="1">
          <mxGeometry relative="1" as="geometry">
            <Array as="points">
              <mxPoint x="2260" y="770" />
              <mxPoint x="2260" y="870" />
              <mxPoint x="1191" y="870" />
              <mxPoint x="1191" y="770" />
            </Array>
          </mxGeometry>
        </mxCell>
        <mxCell id="laC3dYbV331lfGwgBf-x-2" style="edgeStyle=orthogonalEdgeStyle;rounded=0;orthogonalLoop=1;jettySize=auto;html=1;entryX=0;entryY=0.5;entryDx=0;entryDy=0;" parent="1" source="F4LApp7SRapzV72RJLrX-85" target="F4LApp7SRapzV72RJLrX-87" edge="1">
          <mxGeometry relative="1" as="geometry" />
        </mxCell>
        <mxCell id="laC3dYbV331lfGwgBf-x-4" value="to RegF" style="edgeLabel;html=1;align=center;verticalAlign=middle;resizable=0;points=[];" parent="laC3dYbV331lfGwgBf-x-2" vertex="1" connectable="0">
          <mxGeometry x="-0.2422" y="2" relative="1" as="geometry">
            <mxPoint as="offset" />
          </mxGeometry>
        </mxCell>
        <mxCell id="laC3dYbV331lfGwgBf-x-3" style="edgeStyle=orthogonalEdgeStyle;rounded=0;orthogonalLoop=1;jettySize=auto;html=1;entryX=0.02;entryY=0.84;entryDx=0;entryDy=0;entryPerimeter=0;" parent="1" source="F4LApp7SRapzV72RJLrX-85" target="3a17f1ce550125da-4" edge="1">
          <mxGeometry relative="1" as="geometry">
            <Array as="points">
              <mxPoint x="1970" y="800" />
              <mxPoint x="1450" y="800" />
              <mxPoint x="1450" y="728" />
            </Array>
          </mxGeometry>
        </mxCell>
        <mxCell id="laC3dYbV331lfGwgBf-x-5" value="to DataM" style="edgeLabel;html=1;align=center;verticalAlign=middle;resizable=0;points=[];" parent="laC3dYbV331lfGwgBf-x-3" vertex="1" connectable="0">
          <mxGeometry x="-0.8904" relative="1" as="geometry">
            <mxPoint as="offset" />
          </mxGeometry>
        </mxCell>
        <mxCell id="laC3dYbV331lfGwgBf-x-8" style="edgeStyle=orthogonalEdgeStyle;rounded=0;orthogonalLoop=1;jettySize=auto;html=1;entryX=0.25;entryY=0;entryDx=0;entryDy=0;exitX=1.001;exitY=0.205;exitDx=0;exitDy=0;exitPerimeter=0;" parent="1" source="3a17f1ce550125da-2" target="q9rqpO51LhmBKndgSOn--6" edge="1">
          <mxGeometry relative="1" as="geometry">
            <Array as="points">
              <mxPoint x="1440" y="567" />
              <mxPoint x="1440" y="486" />
              <mxPoint x="1735" y="486" />
            </Array>
          </mxGeometry>
        </mxCell>
        <mxCell id="laC3dYbV331lfGwgBf-x-9" style="edgeStyle=orthogonalEdgeStyle;rounded=0;orthogonalLoop=1;jettySize=auto;html=1;entryX=0;entryY=0.5;entryDx=0;entryDy=0;" parent="1" source="JqTOLJbfiFGYhZ1s0W8t-13" target="F4LApp7SRapzV72RJLrX-41" edge="1">
          <mxGeometry relative="1" as="geometry">
            <Array as="points">
              <mxPoint x="1241" y="820" />
              <mxPoint x="1410" y="820" />
              <mxPoint x="1410" y="705" />
            </Array>
          </mxGeometry>
        </mxCell>
        <mxCell id="laC3dYbV331lfGwgBf-x-13" style="edgeStyle=orthogonalEdgeStyle;rounded=0;orthogonalLoop=1;jettySize=auto;html=1;entryX=0.25;entryY=0;entryDx=0;entryDy=0;" parent="1" source="3a17f1ce550125da-2" target="laC3dYbV331lfGwgBf-x-20" edge="1">
          <mxGeometry relative="1" as="geometry">
            <Array as="points">
              <mxPoint x="1450" y="600" />
              <mxPoint x="1450" y="546" />
            </Array>
          </mxGeometry>
        </mxCell>
        <mxCell id="laC3dYbV331lfGwgBf-x-14" value="" style="group" parent="1" vertex="1" connectable="0">
          <mxGeometry x="930" y="797" width="210" height="70" as="geometry" />
        </mxCell>
        <mxCell id="laC3dYbV331lfGwgBf-x-15" value="&lt;div&gt;Immediate&lt;/div&gt;&lt;div&gt;Sign-Extension&lt;/div&gt;" style="whiteSpace=wrap;html=1;shadow=1;fontSize=18;fillColor=#f5f5f5;strokeColor=#666666;" parent="laC3dYbV331lfGwgBf-x-14" vertex="1">
          <mxGeometry x="15" y="-10" width="180" height="80" as="geometry" />
        </mxCell>
        <mxCell id="laC3dYbV331lfGwgBf-x-16" value="imm" style="text;html=1;align=center;verticalAlign=middle;whiteSpace=wrap;rounded=0;" parent="laC3dYbV331lfGwgBf-x-14" vertex="1">
          <mxGeometry x="15" y="-10" width="27" height="14" as="geometry" />
        </mxCell>
        <mxCell id="laC3dYbV331lfGwgBf-x-17" value="ex-imm" style="text;html=1;align=right;verticalAlign=middle;whiteSpace=wrap;rounded=0;" parent="laC3dYbV331lfGwgBf-x-14" vertex="1">
          <mxGeometry x="105" y="50.00333333333333" width="90" height="14" as="geometry" />
        </mxCell>
        <mxCell id="laC3dYbV331lfGwgBf-x-19" style="edgeStyle=orthogonalEdgeStyle;rounded=0;orthogonalLoop=1;jettySize=auto;html=1;entryX=0.25;entryY=1;entryDx=0;entryDy=0;" parent="1" target="laC3dYbV331lfGwgBf-x-20" edge="1">
          <mxGeometry relative="1" as="geometry">
            <mxPoint x="1125" y="854.028571428571" as="sourcePoint" />
            <mxPoint x="1736.25" y="569.625" as="targetPoint" />
            <Array as="points">
              <mxPoint x="1690" y="854" />
              <mxPoint x="1690" y="576" />
            </Array>
          </mxGeometry>
        </mxCell>
        <mxCell id="laC3dYbV331lfGwgBf-x-22" value="ex-imm" style="edgeLabel;html=1;align=center;verticalAlign=middle;resizable=0;points=[];" parent="laC3dYbV331lfGwgBf-x-19" vertex="1" connectable="0">
          <mxGeometry x="0.8257" y="2" relative="1" as="geometry">
            <mxPoint as="offset" />
          </mxGeometry>
        </mxCell>
        <mxCell id="laC3dYbV331lfGwgBf-x-23" style="edgeStyle=orthogonalEdgeStyle;rounded=0;orthogonalLoop=1;jettySize=auto;html=1;entryX=0.011;entryY=0.41;entryDx=0;entryDy=0;entryPerimeter=0;" parent="1" source="laC3dYbV331lfGwgBf-x-11" target="-hvyRLRQOOJ3VwnVLbOB-57" edge="1">
          <mxGeometry relative="1" as="geometry" />
        </mxCell>
        <mxCell id="laC3dYbV331lfGwgBf-x-31" value="" style="group" parent="1" vertex="1" connectable="0">
          <mxGeometry x="2150" y="50" width="150" height="120" as="geometry" />
        </mxCell>
        <mxCell id="laC3dYbV331lfGwgBf-x-27" value="Branch&lt;div&gt;Logic&lt;/div&gt;" style="whiteSpace=wrap;html=1;shadow=1;fontSize=18;fillColor=#f5f5f5;strokeColor=#666666;" parent="laC3dYbV331lfGwgBf-x-31" vertex="1">
          <mxGeometry width="150" height="120" as="geometry" />
        </mxCell>
        <mxCell id="laC3dYbV331lfGwgBf-x-28" value="NZCV" style="text;html=1;align=left;verticalAlign=middle;whiteSpace=wrap;rounded=0;" parent="laC3dYbV331lfGwgBf-x-31" vertex="1">
          <mxGeometry y="6.461538461538462" width="60" height="13.846153846153847" as="geometry" />
        </mxCell>
        <mxCell id="laC3dYbV331lfGwgBf-x-42" value="Branch" style="text;html=1;align=left;verticalAlign=middle;whiteSpace=wrap;rounded=0;" parent="laC3dYbV331lfGwgBf-x-31" vertex="1">
          <mxGeometry y="23.076923076923077" width="60" height="13.846153846153847" as="geometry" />
        </mxCell>
        <mxCell id="s6hKSkpy---ewfnxM8lV-11" value="BTaken" style="text;html=1;align=right;verticalAlign=middle;whiteSpace=wrap;rounded=0;" parent="laC3dYbV331lfGwgBf-x-31" vertex="1">
          <mxGeometry x="90" y="6.461538461538462" width="60" height="13.846153846153847" as="geometry" />
        </mxCell>
        <mxCell id="q9rqpO51LhmBKndgSOn--34" value="funct3" style="text;html=1;align=left;verticalAlign=middle;whiteSpace=wrap;rounded=0;" vertex="1" parent="laC3dYbV331lfGwgBf-x-31">
          <mxGeometry y="53.07692307692308" width="60" height="13.846153846153847" as="geometry" />
        </mxCell>
        <mxCell id="laC3dYbV331lfGwgBf-x-32" style="edgeStyle=orthogonalEdgeStyle;rounded=0;orthogonalLoop=1;jettySize=auto;html=1;entryX=0;entryY=0.5;entryDx=0;entryDy=0;" parent="1" source="laC3dYbV331lfGwgBf-x-29" target="laC3dYbV331lfGwgBf-x-28" edge="1">
          <mxGeometry relative="1" as="geometry" />
        </mxCell>
        <mxCell id="laC3dYbV331lfGwgBf-x-34" style="edgeStyle=orthogonalEdgeStyle;rounded=0;orthogonalLoop=1;jettySize=auto;html=1;entryX=0;entryY=0.5;entryDx=0;entryDy=0;" parent="1" source="laC3dYbV331lfGwgBf-x-33" target="laC3dYbV331lfGwgBf-x-11" edge="1">
          <mxGeometry relative="1" as="geometry" />
        </mxCell>
        <mxCell id="laC3dYbV331lfGwgBf-x-38" style="edgeStyle=orthogonalEdgeStyle;rounded=0;orthogonalLoop=1;jettySize=auto;html=1;entryX=0;entryY=0.5;entryDx=0;entryDy=0;" parent="1" source="laC3dYbV331lfGwgBf-x-37" target="-hvyRLRQOOJ3VwnVLbOB-43" edge="1">
          <mxGeometry relative="1" as="geometry">
            <Array as="points">
              <mxPoint x="2145" y="215" />
            </Array>
          </mxGeometry>
        </mxCell>
        <mxCell id="laC3dYbV331lfGwgBf-x-41" style="edgeStyle=orthogonalEdgeStyle;rounded=0;orthogonalLoop=1;jettySize=auto;html=1;entryX=0;entryY=0.25;entryDx=0;entryDy=0;" parent="1" source="laC3dYbV331lfGwgBf-x-40" target="laC3dYbV331lfGwgBf-x-27" edge="1">
          <mxGeometry relative="1" as="geometry">
            <Array as="points">
              <mxPoint x="1680" y="105" />
              <mxPoint x="1680" y="80" />
              <mxPoint x="2150" y="80" />
            </Array>
          </mxGeometry>
        </mxCell>
        <mxCell id="jQQxH6LwXFBK_Qau7PEY-19" style="edgeStyle=orthogonalEdgeStyle;rounded=0;orthogonalLoop=1;jettySize=auto;html=1;entryX=0.01;entryY=0.346;entryDx=0;entryDy=0;entryPerimeter=0;" parent="1" source="0RyyWnerKbfPe0gcl8zv-8" target="0RyyWnerKbfPe0gcl8zv-3" edge="1">
          <mxGeometry relative="1" as="geometry" />
        </mxCell>
        <mxCell id="MuofbJJSr7D3HssxxxzW-17" style="edgeStyle=orthogonalEdgeStyle;rounded=0;orthogonalLoop=1;jettySize=auto;html=1;entryX=0;entryY=0.5;entryDx=0;entryDy=0;" parent="1" source="0RyyWnerKbfPe0gcl8zv-8" target="jQQxH6LwXFBK_Qau7PEY-24" edge="1">
          <mxGeometry relative="1" as="geometry" />
        </mxCell>
        <mxCell id="s6hKSkpy---ewfnxM8lV-3" style="edgeStyle=orthogonalEdgeStyle;rounded=0;orthogonalLoop=1;jettySize=auto;html=1;entryX=0;entryY=0.5;entryDx=0;entryDy=0;" parent="1" source="s6hKSkpy---ewfnxM8lV-1" target="jQQxH6LwXFBK_Qau7PEY-25" edge="1">
          <mxGeometry relative="1" as="geometry">
            <Array as="points">
              <mxPoint x="1390" y="125" />
              <mxPoint x="1390" y="-40" />
              <mxPoint x="690" y="-40" />
              <mxPoint x="690" y="75" />
            </Array>
          </mxGeometry>
        </mxCell>
        <mxCell id="s6hKSkpy---ewfnxM8lV-9" style="edgeStyle=orthogonalEdgeStyle;rounded=0;orthogonalLoop=1;jettySize=auto;html=1;entryX=0;entryY=0.5;entryDx=0;entryDy=0;exitX=1;exitY=0.5;exitDx=0;exitDy=0;" parent="1" source="F4LApp7SRapzV72RJLrX-85" target="jQQxH6LwXFBK_Qau7PEY-26" edge="1">
          <mxGeometry relative="1" as="geometry">
            <Array as="points">
              <mxPoint x="2020" y="595" />
              <mxPoint x="2020" y="280" />
              <mxPoint x="590" y="280" />
              <mxPoint x="590" y="185" />
            </Array>
            <mxPoint x="586.25" y="94.375" as="targetPoint" />
          </mxGeometry>
        </mxCell>
        <mxCell id="s6hKSkpy---ewfnxM8lV-12" style="edgeStyle=orthogonalEdgeStyle;rounded=0;orthogonalLoop=1;jettySize=auto;html=1;entryX=0;entryY=0.5;entryDx=0;entryDy=0;exitX=1;exitY=0.5;exitDx=0;exitDy=0;" parent="1" source="s6hKSkpy---ewfnxM8lV-11" target="jQQxH6LwXFBK_Qau7PEY-28" edge="1">
          <mxGeometry relative="1" as="geometry">
            <Array as="points">
              <mxPoint x="2330" y="63" />
              <mxPoint x="2330" y="-70" />
              <mxPoint x="660" y="-70" />
              <mxPoint x="660" y="100" />
            </Array>
          </mxGeometry>
        </mxCell>
        <mxCell id="s6hKSkpy---ewfnxM8lV-23" style="edgeStyle=orthogonalEdgeStyle;rounded=0;orthogonalLoop=1;jettySize=auto;html=1;entryX=0;entryY=0.5;entryDx=0;entryDy=0;" parent="1" source="F4LApp7SRapzV72RJLrX-85" target="jQQxH6LwXFBK_Qau7PEY-27" edge="1">
          <mxGeometry relative="1" as="geometry">
            <Array as="points">
              <mxPoint x="2020" y="595" />
              <mxPoint x="2020" y="280" />
              <mxPoint x="590" y="280" />
              <mxPoint x="590" y="215" />
            </Array>
            <mxPoint x="700" y="220" as="targetPoint" />
          </mxGeometry>
        </mxCell>
        <mxCell id="s6hKSkpy---ewfnxM8lV-34" style="edgeStyle=orthogonalEdgeStyle;rounded=0;orthogonalLoop=1;jettySize=auto;html=1;entryX=0;entryY=0.5;entryDx=0;entryDy=0;exitX=1;exitY=0.5;exitDx=0;exitDy=0;" parent="1" source="s6hKSkpy---ewfnxM8lV-31" target="F4LApp7SRapzV72RJLrX-89" edge="1">
          <mxGeometry relative="1" as="geometry">
            <Array as="points">
              <mxPoint x="810" y="645" />
              <mxPoint x="810" y="695" />
              <mxPoint x="1150" y="695" />
              <mxPoint x="1150" y="840" />
              <mxPoint x="2050" y="840" />
              <mxPoint x="2050" y="789" />
            </Array>
          </mxGeometry>
        </mxCell>
        <mxCell id="s6hKSkpy---ewfnxM8lV-29" value="PCplus4&lt;div&gt;(+)&lt;/div&gt;" style="whiteSpace=wrap;html=1;shadow=1;fontSize=18;fillColor=#f5f5f5;strokeColor=#666666;" parent="1" vertex="1">
          <mxGeometry x="700.0042857142856" y="620" width="68.57142857142858" height="150" as="geometry" />
        </mxCell>
        <mxCell id="s6hKSkpy---ewfnxM8lV-30" value="pc" style="text;html=1;align=left;verticalAlign=middle;whiteSpace=wrap;rounded=0;" parent="1" vertex="1">
          <mxGeometry x="700" y="630" width="60" height="30" as="geometry" />
        </mxCell>
        <mxCell id="s6hKSkpy---ewfnxM8lV-31" value="pc+4" style="text;html=1;align=right;verticalAlign=middle;whiteSpace=wrap;rounded=0;" parent="1" vertex="1">
          <mxGeometry x="710" y="630" width="60" height="30" as="geometry" />
        </mxCell>
        <mxCell id="s6hKSkpy---ewfnxM8lV-32" value="4" style="text;html=1;align=left;verticalAlign=middle;whiteSpace=wrap;rounded=0;" parent="1" vertex="1">
          <mxGeometry x="700" y="730" width="60" height="30" as="geometry" />
        </mxCell>
        <mxCell id="s6hKSkpy---ewfnxM8lV-33" style="edgeStyle=orthogonalEdgeStyle;rounded=0;orthogonalLoop=1;jettySize=auto;html=1;entryX=0;entryY=0.5;entryDx=0;entryDy=0;" parent="1" source="0RyyWnerKbfPe0gcl8zv-8" target="s6hKSkpy---ewfnxM8lV-30" edge="1">
          <mxGeometry relative="1" as="geometry">
            <Array as="points">
              <mxPoint x="670" y="440" />
              <mxPoint x="670" y="645" />
            </Array>
          </mxGeometry>
        </mxCell>
        <mxCell id="q9rqpO51LhmBKndgSOn--3" value="" style="group" vertex="1" connectable="0" parent="1">
          <mxGeometry x="1780" y="520" width="60" height="82.5" as="geometry" />
        </mxCell>
        <mxCell id="laC3dYbV331lfGwgBf-x-11" value="" style="shape=trapezoid;perimeter=trapezoidPerimeter;whiteSpace=wrap;html=1;fixedSize=1;shadow=1;strokeColor=#666666;align=center;verticalAlign=middle;fontFamily=Helvetica;fontSize=18;fontColor=default;fillColor=#f5f5f5;rotation=90;" parent="q9rqpO51LhmBKndgSOn--3" vertex="1">
          <mxGeometry x="-11.25" y="26.25" width="82.5" height="30" as="geometry" />
        </mxCell>
        <mxCell id="laC3dYbV331lfGwgBf-x-20" value="00&lt;div&gt;&lt;br&gt;&lt;div&gt;01&lt;/div&gt;&lt;/div&gt;" style="text;html=1;align=center;verticalAlign=middle;whiteSpace=wrap;rounded=0;" parent="q9rqpO51LhmBKndgSOn--3" vertex="1">
          <mxGeometry y="26.25" width="60" height="30" as="geometry" />
        </mxCell>
        <mxCell id="q9rqpO51LhmBKndgSOn--4" value="" style="group" vertex="1" connectable="0" parent="1">
          <mxGeometry x="1720" y="460" width="60" height="82.5" as="geometry" />
        </mxCell>
        <mxCell id="q9rqpO51LhmBKndgSOn--5" value="" style="shape=trapezoid;perimeter=trapezoidPerimeter;whiteSpace=wrap;html=1;fixedSize=1;shadow=1;strokeColor=#666666;align=center;verticalAlign=middle;fontFamily=Helvetica;fontSize=18;fontColor=default;fillColor=#f5f5f5;rotation=90;" vertex="1" parent="q9rqpO51LhmBKndgSOn--4">
          <mxGeometry x="-11.25" y="26.25" width="82.5" height="30" as="geometry" />
        </mxCell>
        <mxCell id="q9rqpO51LhmBKndgSOn--6" value="00&lt;div&gt;&lt;br&gt;&lt;div&gt;01&lt;/div&gt;&lt;/div&gt;" style="text;html=1;align=center;verticalAlign=middle;whiteSpace=wrap;rounded=0;" vertex="1" parent="q9rqpO51LhmBKndgSOn--4">
          <mxGeometry y="26.25" width="60" height="30" as="geometry" />
        </mxCell>
        <mxCell id="q9rqpO51LhmBKndgSOn--10" style="edgeStyle=orthogonalEdgeStyle;rounded=0;orthogonalLoop=1;jettySize=auto;html=1;entryX=0.25;entryY=1;entryDx=0;entryDy=0;" edge="1" parent="1" source="0RyyWnerKbfPe0gcl8zv-8" target="q9rqpO51LhmBKndgSOn--6">
          <mxGeometry relative="1" as="geometry">
            <Array as="points">
              <mxPoint x="670" y="440" />
              <mxPoint x="670" y="890" />
              <mxPoint x="1660" y="890" />
              <mxPoint x="1660" y="516" />
            </Array>
          </mxGeometry>
        </mxCell>
        <mxCell id="q9rqpO51LhmBKndgSOn--11" style="edgeStyle=orthogonalEdgeStyle;rounded=0;orthogonalLoop=1;jettySize=auto;html=1;entryX=0;entryY=0.25;entryDx=0;entryDy=0;" edge="1" parent="1" source="q9rqpO51LhmBKndgSOn--5" target="-hvyRLRQOOJ3VwnVLbOB-57">
          <mxGeometry relative="1" as="geometry" />
        </mxCell>
        <mxCell id="q9rqpO51LhmBKndgSOn--12" style="edgeStyle=orthogonalEdgeStyle;rounded=0;orthogonalLoop=1;jettySize=auto;html=1;entryX=0;entryY=0.5;entryDx=0;entryDy=0;" edge="1" parent="1" source="q9rqpO51LhmBKndgSOn--2" target="q9rqpO51LhmBKndgSOn--5">
          <mxGeometry relative="1" as="geometry" />
        </mxCell>
        <mxCell id="q9rqpO51LhmBKndgSOn--16" style="edgeStyle=orthogonalEdgeStyle;rounded=0;orthogonalLoop=1;jettySize=auto;html=1;entryX=0;entryY=0.5;entryDx=0;entryDy=0;" edge="1" parent="1" source="-hvyRLRQOOJ3VwnVLbOB-6" target="-hvyRLRQOOJ3VwnVLbOB-49">
          <mxGeometry relative="1" as="geometry">
            <Array as="points">
              <mxPoint x="1120" y="345" />
              <mxPoint x="1120" y="35" />
            </Array>
          </mxGeometry>
        </mxCell>
        <mxCell id="q9rqpO51LhmBKndgSOn--18" style="edgeStyle=orthogonalEdgeStyle;rounded=0;orthogonalLoop=1;jettySize=auto;html=1;entryX=0;entryY=0.5;entryDx=0;entryDy=0;" edge="1" parent="1">
          <mxGeometry relative="1" as="geometry">
            <mxPoint x="1040" y="374" as="sourcePoint" />
            <mxPoint x="1520" y="340" as="targetPoint" />
            <Array as="points">
              <mxPoint x="1140" y="374" />
              <mxPoint x="1140" y="340" />
            </Array>
          </mxGeometry>
        </mxCell>
        <mxCell id="q9rqpO51LhmBKndgSOn--19" style="edgeStyle=orthogonalEdgeStyle;rounded=0;orthogonalLoop=1;jettySize=auto;html=1;entryX=0;entryY=0.5;entryDx=0;entryDy=0;" edge="1" parent="1" source="-hvyRLRQOOJ3VwnVLbOB-12" target="-hvyRLRQOOJ3VwnVLbOB-65">
          <mxGeometry relative="1" as="geometry">
            <Array as="points">
              <mxPoint x="1160" y="395" />
              <mxPoint x="1160" y="361" />
            </Array>
          </mxGeometry>
        </mxCell>
        <mxCell id="q9rqpO51LhmBKndgSOn--21" style="edgeStyle=orthogonalEdgeStyle;rounded=0;orthogonalLoop=1;jettySize=auto;html=1;entryX=0;entryY=0.5;entryDx=0;entryDy=0;" edge="1" parent="1" source="-hvyRLRQOOJ3VwnVLbOB-7" target="JqTOLJbfiFGYhZ1s0W8t-5">
          <mxGeometry relative="1" as="geometry">
            <Array as="points">
              <mxPoint x="1180" y="445" />
              <mxPoint x="1180" y="565" />
            </Array>
          </mxGeometry>
        </mxCell>
        <mxCell id="q9rqpO51LhmBKndgSOn--22" style="edgeStyle=orthogonalEdgeStyle;rounded=0;orthogonalLoop=1;jettySize=auto;html=1;entryX=0;entryY=0.5;entryDx=0;entryDy=0;" edge="1" parent="1" source="-hvyRLRQOOJ3VwnVLbOB-8" target="JqTOLJbfiFGYhZ1s0W8t-8">
          <mxGeometry relative="1" as="geometry">
            <Array as="points">
              <mxPoint x="1170" y="475" />
              <mxPoint x="1170" y="615" />
            </Array>
          </mxGeometry>
        </mxCell>
        <mxCell id="q9rqpO51LhmBKndgSOn--23" style="edgeStyle=orthogonalEdgeStyle;rounded=0;orthogonalLoop=1;jettySize=auto;html=1;entryX=0;entryY=0.5;entryDx=0;entryDy=0;" edge="1" parent="1" source="-hvyRLRQOOJ3VwnVLbOB-9" target="JqTOLJbfiFGYhZ1s0W8t-10">
          <mxGeometry relative="1" as="geometry">
            <Array as="points">
              <mxPoint x="1160" y="505" />
              <mxPoint x="1160" y="680" />
            </Array>
          </mxGeometry>
        </mxCell>
        <mxCell id="q9rqpO51LhmBKndgSOn--24" style="edgeStyle=orthogonalEdgeStyle;rounded=0;orthogonalLoop=1;jettySize=auto;html=1;entryX=0.5;entryY=0;entryDx=0;entryDy=0;" edge="1" parent="1" source="-hvyRLRQOOJ3VwnVLbOB-10" target="laC3dYbV331lfGwgBf-x-16">
          <mxGeometry relative="1" as="geometry">
            <Array as="points">
              <mxPoint x="1060" y="545" />
              <mxPoint x="1060" y="660" />
              <mxPoint x="959" y="660" />
            </Array>
          </mxGeometry>
        </mxCell>
        <mxCell id="q9rqpO51LhmBKndgSOn--25" style="edgeStyle=orthogonalEdgeStyle;rounded=0;orthogonalLoop=1;jettySize=auto;html=1;entryX=0;entryY=0.5;entryDx=0;entryDy=0;" edge="1" parent="1" source="-hvyRLRQOOJ3VwnVLbOB-59" target="-hvyRLRQOOJ3VwnVLbOB-61">
          <mxGeometry relative="1" as="geometry">
            <Array as="points">
              <mxPoint x="1490" y="75" />
              <mxPoint x="1490" y="311" />
            </Array>
          </mxGeometry>
        </mxCell>
        <mxCell id="q9rqpO51LhmBKndgSOn--27" value="" style="group" vertex="1" connectable="0" parent="1">
          <mxGeometry x="710" y="10" width="250" height="260" as="geometry" />
        </mxCell>
        <mxCell id="jQQxH6LwXFBK_Qau7PEY-23" value="PC_Control&lt;div&gt;Unit&lt;/div&gt;" style="whiteSpace=wrap;html=1;shadow=1;fontSize=18;fillColor=#f5f5f5;strokeColor=#666666;" parent="q9rqpO51LhmBKndgSOn--27" vertex="1">
          <mxGeometry width="250" height="260" as="geometry" />
        </mxCell>
        <mxCell id="jQQxH6LwXFBK_Qau7PEY-24" value="PC" style="text;html=1;align=left;verticalAlign=middle;whiteSpace=wrap;rounded=0;" parent="q9rqpO51LhmBKndgSOn--27" vertex="1">
          <mxGeometry y="20" width="60" height="30" as="geometry" />
        </mxCell>
        <mxCell id="jQQxH6LwXFBK_Qau7PEY-25" value="Jump" style="text;html=1;align=left;verticalAlign=middle;whiteSpace=wrap;rounded=0;" parent="q9rqpO51LhmBKndgSOn--27" vertex="1">
          <mxGeometry y="50" width="60" height="30" as="geometry" />
        </mxCell>
        <mxCell id="jQQxH6LwXFBK_Qau7PEY-26" value="J_Target" style="text;html=1;align=left;verticalAlign=middle;whiteSpace=wrap;rounded=0;" parent="q9rqpO51LhmBKndgSOn--27" vertex="1">
          <mxGeometry y="160" width="60" height="30" as="geometry" />
        </mxCell>
        <mxCell id="jQQxH6LwXFBK_Qau7PEY-27" value="B_Target" style="text;html=1;align=left;verticalAlign=middle;whiteSpace=wrap;rounded=0;" parent="q9rqpO51LhmBKndgSOn--27" vertex="1">
          <mxGeometry y="190" width="60" height="30" as="geometry" />
        </mxCell>
        <mxCell id="jQQxH6LwXFBK_Qau7PEY-28" value="BTaken" style="text;html=1;align=left;verticalAlign=middle;whiteSpace=wrap;rounded=0;" parent="q9rqpO51LhmBKndgSOn--27" vertex="1">
          <mxGeometry y="75" width="60" height="30" as="geometry" />
        </mxCell>
        <mxCell id="jQQxH6LwXFBK_Qau7PEY-29" value="NextPC" style="text;html=1;align=right;verticalAlign=middle;whiteSpace=wrap;rounded=0;" parent="q9rqpO51LhmBKndgSOn--27" vertex="1">
          <mxGeometry x="190" y="50" width="60" height="30" as="geometry" />
        </mxCell>
        <mxCell id="q9rqpO51LhmBKndgSOn--30" value="00 = PC+4&lt;div&gt;if Jump = 1 → NextPC = J_Target.&lt;br&gt;if BTaken = 1&amp;nbsp;&lt;span style=&quot;color: rgba(0, 0, 0, 0); font-family: monospace; font-size: 0px; text-align: start; white-space: nowrap; background-color: transparent;&quot;&gt;%3CmxGraphModel%3E%3Croot%3E%3CmxCell%20id%3D%220%22%2F%3E%3CmxCell%20id%3D%221%22%20parent%3D%220%22%2F%3E%3CmxCell%20id%3D%222%22%20value%3D%22%22%20style%3D%22group%22%20vertex%3D%221%22%20connectable%3D%220%22%20parent%3D%221%22%3E%3CmxGeometry%20x%3D%221790%22%20y%3D%22500%22%20width%3D%2260%22%20height%3D%2282.5%22%20as%3D%22geometry%22%2F%3E%3C%2FmxCell%3E%3CmxCell%20id%3D%223%22%20value%3D%22%22%20style%3D%22shape%3Dtrapezoid%3Bperimeter%3DtrapezoidPerimeter%3BwhiteSpace%3Dwrap%3Bhtml%3D1%3BfixedSize%3D1%3Bshadow%3D1%3BstrokeColor%3D%23666666%3Balign%3Dcenter%3BverticalAlign%3Dmiddle%3BfontFamily%3DHelvetica%3BfontSize%3D18%3BfontColor%3Ddefault%3BfillColor%3D%23f5f5f5%3Brotation%3D90%3B%22%20vertex%3D%221%22%20parent%3D%222%22%3E%3CmxGeometry%20x%3D%22-11.25%22%20y%3D%2226.25%22%20width%3D%2282.5%22%20height%3D%2230%22%20as%3D%22geometry%22%2F%3E%3C%2FmxCell%3E%3CmxCell%20id%3D%224%22%20value%3D%2200%26lt%3Bdiv%26gt%3B%26lt%3Bbr%26gt%3B%26lt%3Bdiv%26gt%3B01%26lt%3B%2Fdiv%26gt%3B%26lt%3B%2Fdiv%26gt%3B%22%20style%3D%22text%3Bhtml%3D1%3Balign%3Dcenter%3BverticalAlign%3Dmiddle%3BwhiteSpace%3Dwrap%3Brounded%3D0%3B%22%20vertex%3D%221%22%20parent%3D%222%22%3E%3CmxGeometry%20y%3D%2226.25%22%20width%3D%2260%22%20height%3D%2230%22%20as%3D%22geometry%22%2F%3E%3C%2FmxCell%3E%3C%2Froot%3E%3C%2FmxGraphModel%3E&lt;/span&gt;&lt;span style=&quot;background-color: transparent;&quot;&gt;→ NextPC = B_Target.&lt;/span&gt;&lt;/div&gt;" style="text;html=1;align=center;verticalAlign=middle;whiteSpace=wrap;rounded=0;" vertex="1" parent="q9rqpO51LhmBKndgSOn--27">
          <mxGeometry x="10" width="230" height="55" as="geometry" />
        </mxCell>
        <mxCell id="q9rqpO51LhmBKndgSOn--33" style="edgeStyle=orthogonalEdgeStyle;rounded=0;orthogonalLoop=1;jettySize=auto;html=1;entryX=0;entryY=0.5;entryDx=0;entryDy=0;" edge="1" parent="1" source="jQQxH6LwXFBK_Qau7PEY-29" target="0RyyWnerKbfPe0gcl8zv-7">
          <mxGeometry relative="1" as="geometry">
            <Array as="points">
              <mxPoint x="1010" y="75" />
              <mxPoint x="1010" y="300" />
              <mxPoint x="550" y="300" />
              <mxPoint x="550" y="440" />
            </Array>
          </mxGeometry>
        </mxCell>
        <mxCell id="q9rqpO51LhmBKndgSOn--35" style="edgeStyle=orthogonalEdgeStyle;rounded=0;orthogonalLoop=1;jettySize=auto;html=1;entryX=0;entryY=0.5;entryDx=0;entryDy=0;" edge="1" parent="1" source="-hvyRLRQOOJ3VwnVLbOB-11" target="q9rqpO51LhmBKndgSOn--34">
          <mxGeometry relative="1" as="geometry">
            <Array as="points">
              <mxPoint x="1140" y="375" />
              <mxPoint x="1140" y="340" />
              <mxPoint x="1440" y="340" />
              <mxPoint x="1440" y="130" />
              <mxPoint x="2100" y="130" />
              <mxPoint x="2100" y="110" />
            </Array>
          </mxGeometry>
        </mxCell>
        <mxCell id="q9rqpO51LhmBKndgSOn--36" style="edgeStyle=orthogonalEdgeStyle;rounded=0;orthogonalLoop=1;jettySize=auto;html=1;entryX=0.5;entryY=0;entryDx=0;entryDy=0;" edge="1" parent="1" source="F4LApp7SRapzV72RJLrX-73" target="F4LApp7SRapzV72RJLrX-42">
          <mxGeometry relative="1" as="geometry">
            <Array as="points">
              <mxPoint x="1420" y="175" />
              <mxPoint x="1420" y="460" />
              <mxPoint x="1504" y="460" />
            </Array>
          </mxGeometry>
        </mxCell>
        <mxCell id="q9rqpO51LhmBKndgSOn--40" value="" style="triangle;whiteSpace=wrap;html=1;rotation=90;" vertex="1" parent="1">
          <mxGeometry x="1550" y="555" width="20" height="30" as="geometry" />
        </mxCell>
        <mxCell id="q9rqpO51LhmBKndgSOn--41" value="" style="group" vertex="1" connectable="0" parent="1">
          <mxGeometry x="1530" y="510" width="70" height="50" as="geometry" />
        </mxCell>
        <mxCell id="q9rqpO51LhmBKndgSOn--42" value="" style="edgeStyle=elbowEdgeStyle;rounded=0;html=1;startArrow=none;startFill=0;jettySize=auto;orthogonalLoop=1;fontSize=18;elbow=vertical;entryX=0;entryY=0.5;entryDx=0;entryDy=0;" edge="1" parent="q9rqpO51LhmBKndgSOn--41" target="q9rqpO51LhmBKndgSOn--40">
          <mxGeometry relative="1" as="geometry">
            <Array as="points">
              <mxPoint x="29" y="17.857142857142858" />
            </Array>
            <mxPoint x="30" y="2.380952380952381" as="sourcePoint" />
            <mxPoint x="19" y="32.142857142857146" as="targetPoint" />
          </mxGeometry>
        </mxCell>
        <mxCell id="q9rqpO51LhmBKndgSOn--43" value="clk" style="text;html=1;align=center;verticalAlign=middle;whiteSpace=wrap;rounded=0;" vertex="1" parent="q9rqpO51LhmBKndgSOn--41">
          <mxGeometry x="10" y="5" width="60" height="30" as="geometry" />
        </mxCell>
      </root>
    </mxGraphModel>
  </diagram>
</mxfile>
